<?xml version="1.0" encoding="UTF-8" standalone="no"?>
<svg width="27px" height="20px" viewBox="0 0 27 20" version="1.1" xmlns="http://www.w3.org/2000/svg" xmlns:xlink="http://www.w3.org/1999/xlink">
    <path d="M26.904342,0.160207543 C26.8097587,0.0429719393 26.6607043,-0.0163133812 26.5113562,0.0039000899 C26.4782287,0.00578436271 26.4454507,0.0116624716 26.4137354,0.0214065247 L1.07364116,7.03023273 C0.886000577,7.08399441 0.755011699,7.25323813 0.750140323,7.44821096 C0.745268913,7.64318375 0.867642771,7.81874677 1.05236484,7.88179573 L10.323833,10.970431 L9.49405676,17.722913 C9.47187485,17.8996529 9.5569744,18.0726527 9.71057463,18.1630748 C9.8630284,18.2523081 10.0545727,18.2394174 10.1936721,18.1305628 L13.5866188,15.4883417 L16.5615487,19.8099301 C16.6421362,19.9284474 16.7760866,19.9995759 16.9194914,20 L16.9495286,20 C17.1036276,19.988901 17.2403087,19.8970666 17.3087231,19.7586613 L26.9456431,0.650387718 C27.0310101,0.493399098 27.0147761,0.300727288 26.904342,0.160207543 Z M23.8668351,1.64700404 L10.7418502,10.1738882 L2.71066606,7.49790463 L23.8668351,1.64700404 Z M10.4915407,16.7738141 L11.0947867,11.8657601 L13.0859998,14.7543218 L10.4915407,16.7738141 Z M16.863172,18.6907687 L11.4214407,10.7866134 L25.4500431,1.67326369 L16.863172,18.6907687 Z"></path>
</svg>