<?xml version="1.0" encoding="UTF-8" standalone="no"?>
<svg width="20px" height="20px" viewBox="0 0 20 20" version="1.1" xmlns="http://www.w3.org/2000/svg" xmlns:xlink="http://www.w3.org/1999/xlink">
    <!-- Generator: Sketch 48.2 (47327) - http://www.bohemiancoding.com/sketch -->
    <title>GitHub</title>
    <desc>Created with Sketch.</desc>
    <defs></defs>
    <g id="Work-Page" stroke="none" stroke-width="1" fill="none" fill-rule="evenodd" transform="translate(-1240.000000, -680.000000)" opacity="0.299999982">
        <g id="Social" transform="translate(1153.000000, 680.000000)" fill="#FFFFFF" fill-rule="nonzero">
            <path d="M87,10.1887056 C87,14.6070041 89.8653281,18.3554619 93.838667,19.6777554 C94.3384392,19.7703243 94.521921,19.4608231 94.521921,19.1966956 C94.521921,18.9582357 94.5126475,18.1704899 94.508342,17.3348865 C91.7263092,17.939813 91.1392673,16.1550065 91.1392673,16.1550065 C90.6843718,14.9991382 90.0289381,14.6917898 90.0289381,14.6917898 C89.1216311,14.0711316 90.0973298,14.0838825 90.0973298,14.0838825 C91.101511,14.1544269 91.630263,15.1143938 91.630263,15.1143938 C92.5221693,16.643187 93.9696543,16.2012081 94.5403022,15.9456917 C94.630056,15.2993659 94.8892155,14.858215 95.1752017,14.6084944 C92.9540468,14.3556275 90.6191265,13.4981653 90.6191265,9.66641203 C90.6191265,8.5746298 91.0097703,7.68255775 91.6494723,6.98224725 C91.5456427,6.73037395 91.2033532,5.71327603 91.7463465,4.33583865 C91.7463465,4.33583865 92.5860897,4.06707443 94.4970813,5.36088523 C95.294763,5.1393162 96.150238,5.02820048 97.0000828,5.02439175 C97.8499275,5.02820048 98.706065,5.1393162 99.505237,5.36088523 C101.41391,4.06707443 102.252494,4.33583865 102.252494,4.33583865 C102.796812,5.71327603 102.454357,6.73037395 102.350528,6.98224725 C102.99172,7.68255775 103.379714,8.5746298 103.379714,9.66641203 C103.379714,13.5072731 101.040323,14.352978 98.8135375,14.6005458 C99.172221,14.9108749 99.4918238,15.5194445 99.4918238,16.4524191 C99.4918238,17.7904443 99.4802318,18.8673228 99.4802318,19.1966956 C99.4802318,19.4628103 99.660236,19.7746298 100.167129,19.6764307 C104.138315,18.3526468 107,14.6055137 107,10.1887056 C107,4.66570825 102.522749,0.18862275 97.0000828,0.18862275 C91.4779135,0.18862275 87,4.66570825 87,10.1887056 Z" id="GitHub"></path>
        </g>
    </g>
</svg>