<?xml version="1.0" encoding="UTF-8" standalone="no"?>
<svg width="20px" height="20px" viewBox="0 0 20 20" version="1.1" xmlns="http://www.w3.org/2000/svg" xmlns:xlink="http://www.w3.org/1999/xlink">
    <g id="Work-Page" stroke="none" stroke-width="1" fill="none" fill-rule="evenodd" transform="translate(-1200.000000, -680.000000)" opacity="1">
        <g id="Social" transform="translate(1153.000000, 680.000000)" fill="#000000">
            <path d="M64.0432512,17.0426956 L61.0770577,17.0426956 L61.0770577,12.4009 C61.0770577,11.2942026 61.0581683,9.87027417 59.5359038,9.87027417 C57.991972,9.87027417 57.7564099,11.0764188 57.7564099,12.3220089 L57.7564099,17.0426956 L54.7935498,17.0426956 L54.7935498,7.49798606 L57.6369621,7.49798606 L57.6369621,8.80302231 L57.6780744,8.80302231 C58.0736409,8.0524459 59.0414456,7.26131281 60.4842635,7.26131281 C63.4882358,7.26131281 64.0432512,9.23747882 64.0432512,11.8081058 L64.0432512,17.0426956 Z M51.4490125,6.19406095 C50.4962082,6.19406095 49.7278536,5.42348399 49.7278536,4.4734576 C49.7278536,3.52398678 50.4962082,2.75340982 51.4490125,2.75340982 C52.3979277,2.75340982 53.1679491,3.52398678 53.1679491,4.4734576 C53.1679491,5.42348399 52.3979277,6.19406095 51.4490125,6.19406095 Z M49.9634157,17.0426956 L52.9329426,17.0426956 L52.9329426,7.49798606 L49.9634157,7.49798606 L49.9634157,17.0426956 Z M65.5205145,0 L48.475041,0 C47.6611295,0 47,0.645573488 47,1.44226229 L47,18.5571821 C47,19.3538709 47.6611295,20.0005556 48.475041,20.0005556 L65.5205145,20.0005556 C66.3360927,20.0005556 67,19.3538709 67,18.5571821 L67,1.44226229 C67,0.645573488 66.3360927,0 65.5205145,0 Z" id="LinkedIn"></path>
        </g>
    </g>
</svg>